<?xml version="1.0" encoding="UTF-8" standalone="no"?>
<svg
   height="512"
   viewBox="0 0 128 128"
   width="512"
   version="1.1"
   id="svg9"
   sodipodi:docname="logo.svg"
   inkscape:version="1.1.1 (3bf5ae0d25, 2021-09-20)"
   xmlns:inkscape="http://www.inkscape.org/namespaces/inkscape"
   xmlns:sodipodi="http://sodipodi.sourceforge.net/DTD/sodipodi-0.dtd"
   xmlns:xlink="http://www.w3.org/1999/xlink"
   xmlns="http://www.w3.org/2000/svg"
   xmlns:svg="http://www.w3.org/2000/svg">
  <defs
     id="defs13">
    <linearGradient
       id="a-3"
       gradientUnits="userSpaceOnUse"
       x1="97.804001"
       x2="30.188999"
       y1="86.311996"
       y2="18.695999"
       gradientTransform="translate(-0.00151811,-0.01572581)"
       spreadMethod="pad">
      <stop
         offset="0"
         stop-color="#de5b5b"
         id="stop1175" />
      <stop
         offset="1"
         stop-color="#ecbd2c"
         id="stop1177" />
    </linearGradient>
    <linearGradient
       id="a"
       gradientUnits="userSpaceOnUse"
       x1="97.804"
       x2="30.189"
       y1="86.312"
       y2="18.696"
       gradientTransform="translate(-0.00151811,-0.01572581)">
      <stop
         offset="0"
         stop-color="#de5b5b"
         id="stop1170" />
      <stop
         offset="1"
         stop-color="#ecbd2c"
         id="stop1172" />
    </linearGradient>
    <linearGradient
       id="a-4"
       gradientUnits="userSpaceOnUse"
       x1="-2.615"
       x2="510.75201"
       y1="514.61499"
       y2="1.248"
       data-name="New Gradient Swatch 1">
      <stop
         offset="0"
         stop-color="#003f8a"
         id="stop2-8" />
      <stop
         offset=".518"
         stop-color="#00d7df"
         id="stop4-1" />
      <stop
         offset="1"
         stop-color="#006df0"
         id="stop6" />
    </linearGradient>
    <linearGradient
       inkscape:collect="always"
       xlink:href="#a-4"
       id="linearGradient2897"
       x1="7.5699787"
       y1="101.34233"
       x2="127.11004"
       y2="0.64090186"
       gradientUnits="userSpaceOnUse" />
    <linearGradient
       inkscape:collect="always"
       xlink:href="#a-4"
       id="linearGradient3363"
       gradientUnits="userSpaceOnUse"
       x1="7.5699787"
       y1="101.34233"
       x2="127.11004"
       y2="0.64090186" />
    <linearGradient
       inkscape:collect="always"
       xlink:href="#a-4"
       id="linearGradient3365"
       gradientUnits="userSpaceOnUse"
       x1="7.5699787"
       y1="101.34233"
       x2="127.11004"
       y2="0.64090186" />
    <linearGradient
       inkscape:collect="always"
       xlink:href="#a-4"
       id="linearGradient3367"
       gradientUnits="userSpaceOnUse"
       x1="7.5699787"
       y1="101.34233"
       x2="127.11004"
       y2="0.64090186" />
    <linearGradient
       inkscape:collect="always"
       xlink:href="#a-4"
       id="linearGradient3369"
       gradientUnits="userSpaceOnUse"
       x1="7.5699787"
       y1="101.34233"
       x2="127.11004"
       y2="0.64090186" />
    <linearGradient
       inkscape:collect="always"
       xlink:href="#a-4"
       id="linearGradient3371"
       gradientUnits="userSpaceOnUse"
       x1="7.5699787"
       y1="101.34233"
       x2="127.11004"
       y2="0.64090186" />
    <linearGradient
       inkscape:collect="always"
       xlink:href="#a-4"
       id="linearGradient3373"
       gradientUnits="userSpaceOnUse"
       x1="7.5699787"
       y1="101.34233"
       x2="127.11004"
       y2="0.64090186" />
  </defs>
  <sodipodi:namedview
     id="namedview11"
     pagecolor="#505050"
     bordercolor="#eeeeee"
     borderopacity="1"
     inkscape:pageshadow="0"
     inkscape:pageopacity="0"
     inkscape:pagecheckerboard="0"
     showgrid="false"
     inkscape:zoom="0.45254834"
     inkscape:cx="190.03495"
     inkscape:cy="637.50096"
     inkscape:window-width="1392"
     inkscape:window-height="836"
     inkscape:window-x="0"
     inkscape:window-y="0"
     inkscape:window-maximized="1"
     inkscape:current-layer="svg9" />
  <linearGradient
     id="a-3-9"
     gradientUnits="userSpaceOnUse"
     x1="97.804001"
     x2="30.188999"
     y1="86.311996"
     y2="18.695999"
     gradientTransform="translate(-0.00151811,-0.01572581)"
     spreadMethod="pad">
    <stop
       offset="0"
       stop-color="#de5b5b"
       id="stop2" />
    <stop
       offset="1"
       stop-color="#ecbd2c"
       id="stop4" />
  </linearGradient>
  <g
     id="g2827"
     style="fill:url(#linearGradient2897);fill-opacity:1;stroke:#333333;stroke-width:2.85;stroke-miterlimit:4;stroke-dasharray:none;stroke-opacity:1"
     transform="matrix(1.2613043,0,0,1.2653768,-16.720625,-16.985493)">
    <g
       id="g2819"
       style="fill:url(#linearGradient3373);fill-opacity:1;stroke:#333333;stroke-width:2.85;stroke-miterlimit:4;stroke-dasharray:none;stroke-opacity:1">
      <g
         transform="matrix(0.27494972,0,0,0.27494972,64.000096,64.000197)"
         id="g10"
         style="fill:url(#linearGradient3371);fill-opacity:1;stroke:#333333;stroke-width:10.3655;stroke-miterlimit:4;stroke-dasharray:none;stroke-opacity:1">
        <g
           fill="#000000"
           stroke-miterlimit="10"
           stroke-width="0"
           transform="matrix(3.89,0,0,3.89,-175.05,-175.05)"
           id="g8"
           style="fill:url(#linearGradient3369);fill-opacity:1;stroke:#333333;stroke-width:2.66466;stroke-miterlimit:4;stroke-dasharray:none;stroke-opacity:1">
          <path
             d="m 89.175,34.019 c 0.132,-0.213 0.254,-0.432 0.348,-0.663 0.005,-0.013 0.007,-0.027 0.012,-0.04 0.205,-0.519 0.319,-1.076 0.319,-1.651 0,-0.576 -0.114,-1.134 -0.32,-1.653 C 89.529,30 89.528,29.988 89.523,29.976 89.429,29.744 89.306,29.524 89.173,29.31 89.15,29.272 89.135,29.231 89.111,29.193 88.946,28.944 88.756,28.71 88.54,28.494 l -3.587,-3.587 c -0.094,-0.094 -0.206,-0.167 -0.326,-0.217 -0.243,-0.1 -0.516,-0.099 -0.758,0 -0.091,0.038 -0.17,0.101 -0.247,0.164 -0.024,0.02 -0.055,0.029 -0.077,0.051 l -0.259,0.258 c -0.903,0.901 -2.328,1.017 -3.245,0.259 -0.522,-0.431 -0.826,-1.035 -0.858,-1.703 -0.032,-0.659 0.218,-1.305 0.684,-1.771 l 0.359,-0.359 c 0.187,-0.187 0.292,-0.44 0.292,-0.705 0,-0.264 -0.105,-0.518 -0.292,-0.705 L 68.542,8.496 c 0,0 -0.001,0 -0.001,-0.001 L 67.366,7.32 C 63.487,3.441 58.329,1.304 52.843,1.304 c -5.486,0 -10.644,2.138 -14.523,6.017 -0.305,0.304 -0.379,0.769 -0.185,1.154 0.194,0.384 0.618,0.603 1.038,0.536 3.886,-0.585 8.272,1.505 11.179,5.325 2.226,2.926 3.003,6.131 2.192,8.749 l -0.238,0.238 c -0.187,0.187 -0.292,0.44 -0.292,0.705 0,0.264 0.105,0.518 0.292,0.705 l 0.192,0.192 1.64,1.64 -16.937,16.936 -1.832,-1.832 c -0.389,-0.389 -1.02,-0.389 -1.409,0 L 2.884,72.745 c -3.644,3.644 -3.643,9.573 0,13.218 1.822,1.822 4.215,2.732 6.608,2.732 2.393,0 4.787,-0.91 6.608,-2.732 l 13.26,-13.26 c 0.176,-0.176 0.28,-0.412 0.291,-0.66 0.138,-3.059 1.661,-6.258 4.178,-8.775 2.517,-2.517 5.716,-4.04 8.775,-4.178 0.249,-0.012 0.484,-0.115 0.66,-0.291 l 3.913,-3.913 c 0.187,-0.187 0.292,-0.44 0.292,-0.705 0,-0.265 -0.105,-0.518 -0.292,-0.705 l -2.102,-2.101 16.937,-16.936 1.978,1.978 c 0.195,0.195 0.45,0.292 0.705,0.292 0.255,0 0.51,-0.097 0.705,-0.292 l 1.265,-1.265 c 0.902,-0.902 2.327,-1.018 3.245,-0.259 0.522,0.431 0.826,1.035 0.858,1.703 0.032,0.659 -0.218,1.305 -0.684,1.771 l -0.359,0.359 c -0.187,0.187 -0.292,0.44 -0.292,0.705 0,0.265 0,0 0,0 0,0.264 0.105,0.518 0.292,0.705 l 3.588,3.587 c 0.847,0.847 1.974,1.314 3.172,1.314 1.198,0 2.324,-0.467 3.171,-1.314 l 8.884,-8.884 c 0.216,-0.216 0.406,-0.45 0.571,-0.699 0.025,-0.039 0.04,-0.082 0.064,-0.121 z"
             id="path2"
             style="fill:url(#linearGradient3363);fill-opacity:1;stroke:#333333;stroke-width:2.66466;stroke-miterlimit:4;stroke-dasharray:none;stroke-opacity:1" />
          <path
             d="m 72.092,57.279 c -0.176,-0.176 -0.412,-0.28 -0.66,-0.291 -3.463,-0.155 -7.081,-1.877 -9.926,-4.723 -2.304,-2.304 -3.854,-5.114 -4.449,-7.938 l -7.068,7.068 c 0.629,0.79 0.969,1.762 0.969,2.786 0,1.198 -0.466,2.324 -1.314,3.171 l -1.085,1.085 c 1.382,0.765 2.694,1.746 3.862,2.914 2.845,2.846 4.567,6.465 4.723,9.927 0.012,0.248 0.115,0.484 0.291,0.66 l 14.877,14.877 c 1.957,1.958 4.561,3.036 7.329,3.036 2.768,0 5.371,-1.078 7.328,-3.036 4.041,-4.041 4.041,-10.617 0,-14.658 z"
             id="path4"
             style="fill:url(#linearGradient3365);fill-opacity:1;stroke:#333333;stroke-width:2.66466;stroke-miterlimit:4;stroke-dasharray:none;stroke-opacity:1" />
          <path
             d="m 5.351,14.165 c 0.123,0.219 0.323,0.383 0.561,0.46 l 5.822,1.891 21.591,21.591 c 1.268,-0.395 2.674,-0.228 3.812,0.524 l 2.99,-2.99 -23.76,-23.76 -1.891,-5.822 C 14.399,5.821 14.234,5.621 14.016,5.498 L 4.709,0.276 C 4.32,0.057 3.833,0.126 3.517,0.44 L 0.292,3.665 C -0.024,3.981 -0.091,4.468 0.128,4.857 Z"
             id="path6"
             style="fill:url(#linearGradient3367);fill-opacity:1;stroke:#333333;stroke-width:2.66466;stroke-miterlimit:4;stroke-dasharray:none;stroke-opacity:1" />
        </g>
      </g>
    </g>
  </g>
</svg>
