<?xml version="1.0" encoding="UTF-8" standalone="no"?>
<svg
   id="Layer_3"
   height="512"
   viewBox="0 0 64 64"
   width="512"
   data-name="Layer 3"
   version="1.1"
   xmlns:xlink="http://www.w3.org/1999/xlink"
   xmlns="http://www.w3.org/2000/svg"
   xmlns:svg="http://www.w3.org/2000/svg">
  <defs
     id="defs30">
    <linearGradient
       id="linearGradient5841"
       gradientUnits="userSpaceOnUse"
       x1="13.886"
       x2="50.226"
       y1="22.756"
       y2="24.118">
      <stop
         offset="0"
         stop-color="#cc2fa9"
         id="stop5835"
         style="stop-color:#003f8a;stop-opacity:1" />
      <stop
         offset="0.53613108"
         stop-color="#cc2fa9"
         id="stop5837"
         style="stop-color:#00d7df;stop-opacity:1" />
      <stop
         offset="1"
         stop-color="#823cde"
         id="stop5839"
         style="stop-color:#006df0;stop-opacity:1" />
    </linearGradient>
    <linearGradient
       id="linear-gradient-39-0"
       gradientUnits="userSpaceOnUse"
       x1="13.886"
       x2="50.226"
       y1="22.756"
       y2="24.118">
      <stop
         offset="0"
         stop-color="#cc2fa9"
         id="stop4997"
         style="stop-color:#003f8a;stop-opacity:1" />
      <stop
         offset="1"
         stop-color="#823cde"
         id="stop4999"
         style="stop-color:#00d7df;stop-opacity:1" />
    </linearGradient>
    <linearGradient
       id="linear-gradient-39"
       gradientUnits="userSpaceOnUse"
       x1="13.886"
       x2="50.226"
       y1="22.756"
       y2="24.118">
      <stop
         offset="0"
         stop-color="#cc2fa9"
         id="stop4898" />
      <stop
         offset="1"
         stop-color="#823cde"
         id="stop4900" />
    </linearGradient>
    <linearGradient
       id="linear-gradient"
       gradientUnits="userSpaceOnUse"
       x1="13.886"
       x2="50.226"
       y1="22.756"
       y2="24.118">
      <stop
         offset="0"
         stop-color="#cc2fa9"
         id="stop4893" />
      <stop
         offset="1"
         stop-color="#823cde"
         id="stop4895" />
    </linearGradient>
    <linearGradient
       id="linearGradient4823">
      <stop
         style="stop-color:#00ffff;stop-opacity:1;"
         offset="0"
         id="stop4821" />
    </linearGradient>
    <linearGradient
       id="linear-gradient-39-0-8"
       gradientUnits="userSpaceOnUse"
       x1="13.886"
       x2="50.226"
       y1="22.756"
       y2="24.118">
      <stop
         offset="0"
         stop-color="#cc2fa9"
         id="stop2736"
         style="stop-color:#003f8a;stop-opacity:1" />
      <stop
         offset="0.53613108"
         stop-color="#cc2fa9"
         id="stop5036"
         style="stop-color:#0090b7;stop-opacity:1;" />
      <stop
         offset="1"
         stop-color="#823cde"
         id="stop2738"
         style="stop-color:#00d7df;stop-opacity:1" />
    </linearGradient>
    <linearGradient
       xlink:href="#linear-gradient-39-0-8"
       id="linearGradient4891"
       x1="1.916"
       y1="31.998068"
       x2="62.078999"
       y2="31.998068"
       gradientUnits="userSpaceOnUse"
       spreadMethod="pad" />
    <linearGradient
       xlink:href="#linearGradient5841"
       id="linearGradient5611"
       x1="6.5537686"
       y1="57.019951"
       x2="56.806541"
       y2="11.050141"
       gradientUnits="userSpaceOnUse" />
  </defs>
  <linearGradient
     id="linear-gradient-9"
     gradientUnits="userSpaceOnUse"
     x1="13.886"
     x2="50.226"
     y1="22.756"
     y2="24.118">
    <stop
       offset="0"
       stop-color="#cc2fa9"
       id="stop2" />
    <stop
       offset="1"
       stop-color="#823cde"
       id="stop4" />
  </linearGradient>
  <linearGradient
     id="linear-gradient-2"
     x1="13.773"
     x2="50.114"
     xlink:href="#linear-gradient-9"
     y1="25.763"
     y2="27.125" />
  <linearGradient
     id="linear-gradient-3"
     x1="13.69"
     x2="50.03"
     xlink:href="#linear-gradient-9"
     y1="27.986"
     y2="29.348" />
  <linearGradient
     id="linear-gradient-4"
     x1="14.325"
     x2="50.666"
     xlink:href="#linear-gradient-9"
     y1="11.03"
     y2="12.392" />
  <linearGradient
     id="linear-gradient-5"
     x1="13.451"
     x2="49.791"
     xlink:href="#linear-gradient-9"
     y1="34.374"
     y2="35.736" />
  <linearGradient
     id="linear-gradient-6"
     x1="13.19"
     x2="49.53"
     xlink:href="#linear-gradient-9"
     y1="41.333"
     y2="42.695" />
  <linearGradient
     id="linear-gradient-7"
     x1="14.143"
     x2="50.483"
     xlink:href="#linear-gradient-9"
     y1="15.895"
     y2="17.256" />
  <g
     id="g872"
     style="stroke:none;stroke-opacity:1;stroke-linecap:round;paint-order:stroke markers fill;stroke-width:1.25;stroke-miterlimit:4;stroke-dasharray:none;opacity:1;stroke-linejoin:bevel;fill:url(#linearGradient4891);fill-opacity:1.0;fill-rule:nonzero">
    <g
       id="g5585"
       style="fill:url(#linearGradient5611);fill-opacity:1">
      <path
         d="m32.888 16.188-1.926 5.677 1.712.5a2.222 2.222 0 0 1 1.553 2.616 6.763 6.763 0 0 1 -5.07 5.053 2.868 2.868 0 0 0 1.515 1.183 2.638 2.638 0 0 0 3.293-1.286l3.85-11.3a1.058 1.058 0 0 0 -.505-1.2l-2.782-1.706a1.218 1.218 0 0 0 -1.054-.118.941.941 0 0 0 -.586.581z"
         fill="url(#linear-gradient)"
         id="path13"
         style="stroke:none;stroke-opacity:1;stroke-linecap:round;paint-order:stroke markers fill;stroke-width:1.25;stroke-miterlimit:4;stroke-dasharray:none;stroke-linejoin:bevel;fill:url(#linearGradient5611);fill-opacity:1.0;fill-rule:nonzero" />
      <path
         d="m39.4 20.166-3.729 10.984a2.115 2.115 0 0 0 1.429 2.614 2.144 2.144 0 0 0 2.721-1.2l3.508-10.356a1 1 0 0 0 -.424-1.15l-1.923-1.353a1.111 1.111 0 0 0 -1.582.461z"
         fill="url(#linear-gradient-2)"
         id="path15"
         style="stroke:none;stroke-opacity:1;stroke-linecap:round;paint-order:stroke markers fill;stroke-width:1.25;stroke-miterlimit:4;stroke-dasharray:none;stroke-linejoin:bevel;fill:url(#linearGradient5611);fill-opacity:1.0;fill-rule:nonzero" />
      <path
         d="m44.886 23.863-3.086 9.105c-.006.027-.014.052-.022.077a1.587 1.587 0 0 0 1.084 1.938 1.558 1.558 0 0 0 2.035-.83l3.058-8.994a1.018 1.018 0 0 0 -.492-1.184l-.94-.586a1.115 1.115 0 0 0 -1.637.474z"
         fill="url(#linear-gradient-3)"
         id="path17"
         style="stroke:none;stroke-opacity:1;stroke-linecap:round;paint-order:stroke markers fill;stroke-width:1.25;stroke-miterlimit:4;stroke-dasharray:none;stroke-linejoin:bevel;fill:url(#linearGradient5611);fill-opacity:1.0;fill-rule:nonzero" />
      <path
         d="m21.827 19.369 1.835-5.4-4.338-2.544a1 1 0 0 1 -.494-.869 8.548 8.548 0 0 0 -4.176-7.431 8.238 8.238 0 0 0 -7.914-.225l5.266 3.034a2.924 2.924 0 0 1 1.03 3.982l-1.9 3.335a2.9 2.9 0 0 1 -3.956 1.078l-5.264-3.076a8.642 8.642 0 0 0 5.321 7.371 8.3 8.3 0 0 0 7.337-.576 1 1 0 0 1 1.011 0l3.515 2.057a5.064 5.064 0 0 1 2.727-.736z"
         fill="url(#linear-gradient-4)"
         id="path19"
         style="fill:url(#linearGradient5611);stroke:none;stroke-opacity:1;stroke-linecap:round;paint-order:stroke markers fill;stroke-width:1.25;stroke-miterlimit:4;stroke-dasharray:none;stroke-linejoin:bevel;fill-opacity:1.0;fill-rule:nonzero" />
      <path
         d="m57.846 28.394a8.258 8.258 0 0 0 -8.4.045.986.986 0 0 1 -.539.137l-2.12 6.224a3.375 3.375 0 0 1 -1.57 1.853 9.035 9.035 0 0 0 .4 2.1 8.336 8.336 0 0 0 2.722 3.923 8.247 8.247 0 0 0 8.909.911l-5.248-3.034a2.932 2.932 0 0 1 -1.047-3.975l1.913-3.345a2.917 2.917 0 0 1 3.948-1.089l5.265 3.083a8.746 8.746 0 0 0 -4.233-6.833z"
         fill="url(#linear-gradient-5)"
         id="path21"
         style="fill:url(#linearGradient5611);stroke:none;stroke-opacity:1;stroke-linecap:round;paint-order:stroke markers fill;stroke-width:1.25;stroke-miterlimit:4;stroke-dasharray:none;stroke-linejoin:bevel;fill-opacity:1.0;fill-rule:nonzero" />
      <g
         id="g5574"
         style="fill:url(#linearGradient5611);fill-opacity:1.0">
        <g
           id="g5570"
           style="fill:url(#linearGradient5611);fill-opacity:1.0">
          <path
             d="m43.227 37.076a3.692 3.692 0 0 1 -.934-.18 3.784 3.784 0 0 1 -2.117-1.7 4.169 4.169 0 0 1 -2.316.7 4.432 4.432 0 0 1 -1.4-.231 4.267 4.267 0 0 1 -2.727-2.794 4.771 4.771 0 0 1 -2.137.513 4.851 4.851 0 0 1 -1.573-.262 4.793 4.793 0 0 1 -3-2.925 6.9 6.9 0 0 1 -1.285-.229l-.52-.133 1.768 7.954a1.015 1.015 0 0 1 -.977 1.211 1 1 0 0 1 -.975-.783l-1.988-8.946-1.525-.392a1 1 0 1 1 .5-1.938l4.24 1.09a4.877 4.877 0 0 0 1.341.2c.144-.007.207-.01.27-.01a4.761 4.761 0 0 0 4.4-3.673.216.216 0 0 0 -.159-.255l-9.518-2.8a2.995 2.995 0 0 0 -3.683 1.8l-3.1 8.142a9.019 9.019 0 0 0 1.009 8.326s3.71 5.349 5.3 7.649a5 5 0 0 1 .887 2.839v11.751h18v-12.44a4.963 4.963 0 0 1 .164-1.277l2.458-9.2a11.182 11.182 0 0 1 -.403-2.007z"
             fill="url(#linear-gradient-6)"
             id="path23"
             style="stroke:none;stroke-opacity:1;stroke-linecap:round;paint-order:stroke markers fill;stroke-width:1.25;stroke-miterlimit:4;stroke-dasharray:none;stroke-linejoin:bevel;fill:url(#linearGradient5611);fill-opacity:1.0;fill-rule:nonzero" />
        </g>
      </g>
      <path
         d="m29.041 21.3 2.259-6.669a1.018 1.018 0 0 0 -.491-1.187l-2.785-1.713a1.238 1.238 0 0 0 -1.061-.12.95.95 0 0 0 -.589.582l-2.569 7.568z"
         fill="url(#linear-gradient-7)"
         id="path25"
         style="stroke:none;stroke-opacity:1;stroke-linecap:round;paint-order:stroke markers fill;stroke-width:1.25;stroke-miterlimit:4;stroke-dasharray:none;stroke-linejoin:bevel;fill:url(#linearGradient5611);fill-opacity:1.0;fill-rule:nonzero" />
    </g>
  </g>
</svg>
